<svg width="81" height="207" viewBox="0 0 81 207" fill="none" xmlns="http://www.w3.org/2000/svg">
<path d="M26.8346 57.3747C26.8346 57.3747 27.881 53.4705 26.0236 52.0408C24.1663 50.6111 23.3855 51.169 21.8976 49.9201C20.4097 48.6713 19.5303 46.9745 20.1388 50.7453C20.7473 54.5162 22.6469 56.8281 26.8346 57.3747Z" stroke="black" stroke-width="2"/>
<path d="M26.8346 57.3747C26.8346 57.3747 27.881 53.4705 26.0236 52.0408C24.1663 50.6111 23.3855 51.169 21.8976 49.9201C20.4097 48.6713 19.5303 46.9745 20.1388 50.7453C20.7473 54.5162 22.6469 56.8281 26.8346 57.3747Z" stroke="black" stroke-width="2"/>
<path d="M26.8346 57.3747C26.8346 57.3747 27.881 53.4705 26.0236 52.0408C24.1663 50.6111 23.3855 51.169 21.8976 49.9201C20.4097 48.6713 19.5303 46.9745 20.1388 50.7453C20.7473 54.5162 22.6469 56.8281 26.8346 57.3747Z" stroke="black" stroke-width="2"/>
<path d="M32.5341 36.9604C32.5341 36.9604 33.5807 33.0562 31.7234 31.6264C29.8661 30.1967 29.0853 30.7545 27.5975 29.5056C26.1096 28.2566 25.2303 26.5598 25.8387 30.3307C26.447 34.1016 28.3465 36.4135 32.5341 36.9604Z" stroke="black" stroke-width="2"/>
<path d="M32.5341 36.9604C32.5341 36.9604 33.5807 33.0562 31.7234 31.6264C29.8661 30.1967 29.0853 30.7545 27.5975 29.5056C26.1096 28.2566 25.2303 26.5598 25.8387 30.3307C26.447 34.1016 28.3465 36.4135 32.5341 36.9604Z" stroke="black" stroke-width="2"/>
<path d="M32.5341 36.9604C32.5341 36.9604 33.5807 33.0562 31.7234 31.6264C29.8661 30.1967 29.0853 30.7545 27.5975 29.5056C26.1096 28.2566 25.2303 26.5598 25.8387 30.3307C26.447 34.1016 28.3465 36.4135 32.5341 36.9604Z" stroke="black" stroke-width="2"/>
<path d="M39.6718 19.9687C39.6718 19.9687 39.8149 15.9292 37.684 14.9531C35.553 13.9769 34.9174 14.6958 33.1871 13.8129C31.4568 12.93 30.219 11.4739 31.6586 15.0119C33.0982 18.5499 35.4683 20.3762 39.6718 19.9687Z" stroke="black" stroke-width="2"/>
<path d="M39.6718 19.9687C39.6718 19.9687 39.8149 15.9292 37.684 14.9531C35.553 13.9769 34.9174 14.6958 33.1871 13.8129C31.4568 12.93 30.219 11.4739 31.6586 15.0119C33.0982 18.5499 35.4683 20.3762 39.6718 19.9687Z" stroke="black" stroke-width="2"/>
<path d="M39.6718 19.9687C39.6718 19.9687 39.8149 15.9292 37.684 14.9531C35.553 13.9769 34.9174 14.6958 33.1871 13.8129C31.4568 12.93 30.219 11.4739 31.6586 15.0119C33.0982 18.5499 35.4683 20.3762 39.6718 19.9687Z" stroke="black" stroke-width="2"/>
<path d="M49.4659 26.3751C49.4659 26.3751 48.4193 22.4709 50.2766 21.0411C52.1339 19.6113 52.9147 20.1692 54.4025 18.9202C55.8904 17.6713 56.7697 15.9744 56.1613 19.7454C55.553 23.5163 53.6535 25.8282 49.4659 26.3751Z" stroke="black" stroke-width="2"/>
<path d="M49.4659 26.3751C49.4659 26.3751 48.4193 22.4709 50.2766 21.0411C52.1339 19.6113 52.9147 20.1692 54.4025 18.9202C55.8904 17.6713 56.7697 15.9744 56.1613 19.7454C55.553 23.5163 53.6535 25.8282 49.4659 26.3751Z" stroke="black" stroke-width="2"/>
<path d="M49.4659 26.3751C49.4659 26.3751 48.4193 22.4709 50.2766 21.0411C52.1339 19.6113 52.9147 20.1692 54.4025 18.9202C55.8904 17.6713 56.7697 15.9744 56.1613 19.7454C55.553 23.5163 53.6535 25.8282 49.4659 26.3751Z" stroke="black" stroke-width="2"/>
<path d="M40.8658 9.96038C40.8658 9.96038 39.8192 6.05618 41.6765 4.62642C43.5338 3.19665 44.3146 3.75449 45.8024 2.50556C47.2903 1.25662 48.1696 -0.440232 47.5612 3.33068C46.9529 7.10159 45.0534 9.41352 40.8658 9.96038Z" stroke="black" stroke-width="2"/>
<path d="M40.8658 9.96038C40.8658 9.96038 39.8192 6.05618 41.6765 4.62642C43.5338 3.19665 44.3146 3.75449 45.8024 2.50556C47.2903 1.25662 48.1696 -0.440232 47.5612 3.33068C46.9529 7.10159 45.0534 9.41352 40.8658 9.96038Z" stroke="black" stroke-width="2"/>
<path d="M40.8658 9.96038C40.8658 9.96038 39.8192 6.05618 41.6765 4.62642C43.5338 3.19665 44.3146 3.75449 45.8024 2.50556C47.2903 1.25662 48.1696 -0.440232 47.5612 3.33068C46.9529 7.10159 45.0534 9.41352 40.8658 9.96038Z" stroke="black" stroke-width="2"/>
<path d="M54.8658 47.8751C54.8658 47.8751 53.8192 43.9709 55.6765 42.5411C57.5338 41.1113 58.3146 41.6692 59.8024 40.4202C61.2903 39.1713 62.1696 37.4744 61.5612 41.2454C60.9529 45.0163 59.0534 47.3282 54.8658 47.8751Z" stroke="black" stroke-width="2"/>
<path d="M54.8658 47.8751C54.8658 47.8751 53.8192 43.9709 55.6765 42.5411C57.5338 41.1113 58.3146 41.6692 59.8024 40.4202C61.2903 39.1713 62.1696 37.4744 61.5612 41.2454C60.9529 45.0163 59.0534 47.3282 54.8658 47.8751Z" stroke="black" stroke-width="2"/>
<path d="M54.8658 47.8751C54.8658 47.8751 53.8192 43.9709 55.6765 42.5411C57.5338 41.1113 58.3146 41.6692 59.8024 40.4202C61.2903 39.1713 62.1696 37.4744 61.5612 41.2454C60.9529 45.0163 59.0534 47.3282 54.8658 47.8751Z" stroke="black" stroke-width="2"/>
<path d="M23.5989 128.5C23.5989 129.937 22.5146 131 21.2994 131C20.0843 131 19 129.937 19 128.5C19 127.063 20.0843 126 21.2994 126C22.5146 126 23.5989 127.063 23.5989 128.5Z" stroke="black" stroke-width="2"/>
<path d="M53.0989 132.5C53.0989 133.937 52.0146 135 50.7994 135C49.5843 135 48.5 133.937 48.5 132.5C48.5 131.063 49.5843 130 50.7994 130C52.0146 130 53.0989 131.063 53.0989 132.5Z" stroke="black" stroke-width="2"/>
<path d="M79.5989 169.915C79.5989 171.352 78.5146 172.415 77.2994 172.415C76.0843 172.415 75 171.352 75 169.915C75 168.478 76.0843 167.415 77.2994 167.415C78.5146 167.415 79.5989 168.478 79.5989 169.915Z" stroke="black" stroke-width="2"/>
<path d="M5.59886 197.5C5.59886 198.937 4.51459 200 3.29943 200C2.08427 200 1 198.937 1 197.5C1 196.063 2.08427 195 3.29943 195C4.51459 195 5.59886 196.063 5.59886 197.5Z" stroke="black" stroke-width="2"/>
<ellipse cx="4.29943" cy="168.915" rx="3.29943" ry="3.5" fill="black"/>
<ellipse cx="32.2994" cy="101.415" rx="3.29943" ry="3.5" fill="black"/>
<ellipse cx="65.2994" cy="144.915" rx="3.29943" ry="3.5" fill="black"/>
<ellipse cx="41.0994" cy="203.5" rx="3.29943" ry="3.5" fill="black"/>
<ellipse cx="76.2994" cy="198.5" rx="3.29943" ry="3.5" fill="black"/>
<path d="M55.0001 47.4147C53.5062 100.075 58 121.915 64 141.915M75.5 167.415C73 164.415 70.5 160.915 69.5 156.991L53.7154 150.259M41 134.915L52.7373 145.415C53.0456 147.063 53.3715 148.678 53.7154 150.259M41 134.915V103.915M41 134.915V200.915M30.0992 131.415L19.5 139.415C16 151.415 10 160.915 5 166.915M30.0992 131.415C30.2445 130.254 30.3783 129.087 30.5 127.915C30.994 123.16 31.3965 118.299 31.7225 113.415L41 103.915M30.0992 131.415C26.4424 160.645 15.0158 185.064 5 195.915M26.4999 56.9147C28.5647 79.6264 27.8459 103.296 22.5 126M41 103.915V9.41467M32.5001 35.9147C32.5001 41.9146 33.625 69.0071 32.5001 98.4203M49.4997 25.4147C47.8611 66.8634 48.3396 105.191 50.5 129.915M53.7154 150.259C57.8697 169.367 64.6553 183.714 74.9997 196.415" stroke="black" stroke-width="2"/>
</svg>
